<svg width="29" height="29" viewBox="0 0 29 29" fill="none" xmlns="http://www.w3.org/2000/svg">
<path d="M23.5686 7.66086C24.009 7.33052 24.6338 7.41979 24.9642 7.86023C25.2945 8.30068 25.2052 8.92552 24.7648 9.25586L17.2732 14.8746H17.2731C15.6298 16.1071 13.3703 16.1071 11.7269 14.8746L4.23523 9.25593L4.21484 9.24021C3.7921 8.90609 3.71069 8.29387 4.03585 7.8603C4.36103 7.42674 4.97158 7.33346 5.4107 7.64574L5.43148 7.66093L12.9232 13.2796H12.9231C13.8576 13.9805 15.1424 13.9804 16.0769 13.2796L23.5686 7.66086Z" fill="#333"/>
<path d="M24.3779 8.45848C24.3779 7.67435 23.7423 7.03867 22.9581 7.03867H6.04148C5.25735 7.03867 4.62168 7.67435 4.62168 8.45848V20.5418C4.62168 21.3259 5.25735 21.9616 6.04148 21.9616H22.9581C23.7423 21.9616 24.3779 21.3259 24.3779 20.5418V8.45848ZM26.3717 20.5418C26.3717 22.427 24.8434 23.9554 22.9581 23.9554H6.04148C4.15624 23.9554 2.62793 22.427 2.62793 20.5418V8.45848C2.62793 6.57323 4.15624 5.04492 6.04148 5.04492H22.9581C24.8434 5.04492 26.3717 6.57323 26.3717 8.45848V20.5418Z" fill="#333"/>
</svg>
