<svg width="326" height="44" viewBox="0 0 326 44" fill="none" xmlns="http://www.w3.org/2000/svg">
<path d="M0.642046 36V1.09091H24.4716V7.94318H9.07955V15.1023H22.9545V21.9716H9.07955V36H0.642046ZM37.1577 1.09091V36H28.7202V1.09091H37.1577ZM42.4545 36V1.09091H50.892V29.1477H65.4148V36H42.4545ZM69.7827 1.09091H80.2315L89.0952 22.7045H89.5043L98.3679 1.09091H108.817V36H100.601V14.5568H100.311L91.9247 35.7784H86.6747L78.2884 14.4375H77.9986V36H69.7827V1.09091ZM112.938 7.94318V1.09091H142.443V7.94318H131.858V36H123.54V7.94318H112.938ZM177.919 18.5455C177.919 22.3864 177.18 25.642 175.703 28.3125C174.226 30.983 172.226 33.0114 169.703 34.3977C167.192 35.7841 164.374 36.4773 161.249 36.4773C158.112 36.4773 155.288 35.7784 152.777 34.3807C150.266 32.983 148.271 30.9545 146.794 28.2955C145.328 25.625 144.595 22.375 144.595 18.5455C144.595 14.7045 145.328 11.4489 146.794 8.77841C148.271 6.10795 150.266 4.07955 152.777 2.69318C155.288 1.30682 158.112 0.613635 161.249 0.613635C164.374 0.613635 167.192 1.30682 169.703 2.69318C172.226 4.07955 174.226 6.10795 175.703 8.77841C177.18 11.4489 177.919 14.7045 177.919 18.5455ZM169.294 18.5455C169.294 16.2727 168.97 14.3523 168.322 12.7841C167.686 11.2159 166.766 10.0284 165.561 9.22159C164.368 8.41477 162.93 8.01136 161.249 8.01136C159.578 8.01136 158.141 8.41477 156.936 9.22159C155.732 10.0284 154.805 11.2159 154.158 12.7841C153.521 14.3523 153.203 16.2727 153.203 18.5455C153.203 20.8182 153.521 22.7386 154.158 24.3068C154.805 25.875 155.732 27.0625 156.936 27.8693C158.141 28.6761 159.578 29.0795 161.249 29.0795C162.93 29.0795 164.368 28.6761 165.561 27.8693C166.766 27.0625 167.686 25.875 168.322 24.3068C168.97 22.7386 169.294 20.8182 169.294 18.5455ZM215.794 18.5455C215.794 22.3864 215.055 25.642 213.578 28.3125C212.101 30.983 210.101 33.0114 207.578 34.3977C205.067 35.7841 202.249 36.4773 199.124 36.4773C195.987 36.4773 193.163 35.7784 190.652 34.3807C188.141 32.983 186.146 30.9545 184.669 28.2955C183.203 25.625 182.47 22.375 182.47 18.5455C182.47 14.7045 183.203 11.4489 184.669 8.77841C186.146 6.10795 188.141 4.07955 190.652 2.69318C193.163 1.30682 195.987 0.613635 199.124 0.613635C202.249 0.613635 205.067 1.30682 207.578 2.69318C210.101 4.07955 212.101 6.10795 213.578 8.77841C215.055 11.4489 215.794 14.7045 215.794 18.5455ZM207.169 18.5455C207.169 16.2727 206.845 14.3523 206.197 12.7841C205.561 11.2159 204.641 10.0284 203.436 9.22159C202.243 8.41477 200.805 8.01136 199.124 8.01136C197.453 8.01136 196.016 8.41477 194.811 9.22159C193.607 10.0284 192.68 11.2159 192.033 12.7841C191.396 14.3523 191.078 16.2727 191.078 18.5455C191.078 20.8182 191.396 22.7386 192.033 24.3068C192.68 25.875 193.607 27.0625 194.811 27.8693C196.016 28.6761 197.453 29.0795 199.124 29.0795C200.805 29.0795 202.243 28.6761 203.436 27.8693C204.641 27.0625 205.561 25.875 206.197 24.3068C206.845 22.7386 207.169 20.8182 207.169 18.5455ZM220.72 36V1.09091H229.158V29.1477H243.68V36H220.72ZM266.918 11.5568C266.804 10.3068 266.298 9.33523 265.401 8.64205C264.514 7.9375 263.247 7.58523 261.599 7.58523C260.509 7.58523 259.599 7.72727 258.872 8.01136C258.145 8.29545 257.599 8.6875 257.236 9.1875C256.872 9.67614 256.685 10.2386 256.673 10.875C256.651 11.3977 256.753 11.858 256.98 12.2557C257.219 12.6534 257.56 13.0057 258.003 13.3125C258.457 13.608 259.003 13.8693 259.639 14.0966C260.276 14.3239 260.991 14.5227 261.787 14.6932L264.787 15.375C266.514 15.75 268.037 16.25 269.355 16.875C270.685 17.5 271.798 18.2443 272.696 19.108C273.605 19.9716 274.293 20.9659 274.759 22.0909C275.224 23.2159 275.463 24.4773 275.474 25.875C275.463 28.0795 274.906 29.9716 273.804 31.5511C272.702 33.1307 271.116 34.3409 269.048 35.1818C266.991 36.0227 264.509 36.4432 261.599 36.4432C258.679 36.4432 256.134 36.0057 253.963 35.1307C251.793 34.2557 250.105 32.9261 248.901 31.142C247.696 29.358 247.077 27.1023 247.043 24.375H255.122C255.19 25.5 255.491 26.4375 256.026 27.1875C256.56 27.9375 257.293 28.5057 258.224 28.892C259.168 29.2784 260.259 29.4716 261.497 29.4716C262.634 29.4716 263.599 29.3182 264.395 29.0114C265.202 28.7045 265.821 28.2784 266.253 27.733C266.685 27.1875 266.906 26.5625 266.918 25.858C266.906 25.1989 266.702 24.6364 266.304 24.1705C265.906 23.6932 265.293 23.2841 264.463 22.9432C263.645 22.5909 262.599 22.267 261.327 21.9716L257.679 21.1193C254.656 20.4261 252.276 19.3068 250.537 17.7614C248.798 16.2045 247.935 14.1023 247.946 11.4545C247.935 9.29545 248.514 7.40341 249.685 5.77841C250.855 4.15341 252.474 2.88636 254.543 1.97727C256.611 1.06818 258.969 0.613635 261.616 0.613635C264.321 0.613635 266.668 1.07386 268.656 1.99432C270.656 2.90341 272.207 4.18182 273.31 5.82955C274.412 7.47727 274.974 9.38636 274.997 11.5568H266.918ZM282.591 36.3707C281.67 36.3707 280.882 36.0469 280.226 35.3991C279.578 34.7514 279.259 33.9673 279.267 33.0469C279.259 32.1435 279.578 31.3722 280.226 30.733C280.882 30.0852 281.67 29.7614 282.591 29.7614C283.46 29.7614 284.227 30.0852 284.892 30.733C285.565 31.3722 285.906 32.1435 285.915 33.0469C285.906 33.6605 285.744 34.2187 285.429 34.7216C285.122 35.2244 284.717 35.625 284.214 35.9233C283.72 36.2216 283.179 36.3707 282.591 36.3707ZM299.197 43.7727C297.331 43.7727 295.733 43.5128 294.403 42.9929C293.074 42.473 292.03 41.7614 291.271 40.858C290.513 39.9545 290.057 38.9318 289.903 37.7898L295.822 37.4574C295.933 37.858 296.138 38.2074 296.436 38.5057C296.743 38.804 297.139 39.0341 297.625 39.196C298.119 39.358 298.699 39.4389 299.364 39.4389C300.412 39.4389 301.277 39.1832 301.959 38.6719C302.649 38.169 302.994 37.2869 302.994 36.0256V32.5739H302.777C302.53 33.179 302.155 33.7202 301.652 34.1974C301.149 34.6747 300.523 35.0497 299.773 35.3224C299.031 35.5952 298.179 35.7315 297.216 35.7315C295.784 35.7315 294.472 35.3991 293.278 34.7344C292.094 34.0611 291.143 33.0213 290.428 31.6151C289.72 30.2003 289.366 28.3807 289.366 26.1562C289.366 23.8636 289.733 21.9759 290.466 20.4929C291.199 19.0014 292.158 17.8977 293.342 17.1818C294.536 16.4659 295.818 16.108 297.19 16.108C298.222 16.108 299.104 16.2869 299.837 16.6449C300.578 16.9943 301.188 17.446 301.665 18C302.142 18.554 302.504 19.1293 302.751 19.7259H302.93V16.3636H309.156V36.0767C309.156 37.7386 308.739 39.1406 307.903 40.2827C307.068 41.4247 305.901 42.2898 304.401 42.8778C302.901 43.4744 301.166 43.7727 299.197 43.7727ZM299.389 31.1804C300.148 31.1804 300.795 30.9801 301.332 30.5795C301.869 30.179 302.283 29.6037 302.572 28.8537C302.862 28.1037 303.007 27.2045 303.007 26.1562C303.007 25.0909 302.862 24.1747 302.572 23.4077C302.291 22.6321 301.878 22.0355 301.332 21.6179C300.795 21.2003 300.148 20.9915 299.389 20.9915C298.614 20.9915 297.957 21.2045 297.42 21.6307C296.884 22.0568 296.474 22.6577 296.193 23.4332C295.92 24.2003 295.784 25.108 295.784 26.1562C295.784 27.2045 295.925 28.1037 296.206 28.8537C296.487 29.6037 296.892 30.179 297.42 30.5795C297.957 30.9801 298.614 31.1804 299.389 31.1804ZM313.142 36V16.3636H319.214V19.9432H319.419C319.777 18.6477 320.36 17.6847 321.17 17.054C321.98 16.4148 322.922 16.0952 323.995 16.0952C324.285 16.0952 324.583 16.1165 324.89 16.1591C325.197 16.1932 325.483 16.2486 325.747 16.3253V21.7585C325.449 21.6562 325.056 21.5753 324.571 21.5156C324.093 21.456 323.667 21.4261 323.292 21.4261C322.551 21.4261 321.882 21.5923 321.285 21.9247C320.697 22.2486 320.233 22.7045 319.892 23.2926C319.559 23.8722 319.393 24.554 319.393 25.3381V36H313.142Z" fill="white"/>
</svg>
