<svg width="31" height="31" viewBox="0 0 31 31" fill="none" xmlns="http://www.w3.org/2000/svg">
<path d="M7.23355 13.1751C7.23355 8.44615 10.9551 4.6501 15.5002 4.6501C20.0453 4.6501 23.7669 8.44615 23.7669 13.1751C23.7669 15.5043 22.7444 17.6663 21.096 19.8679C19.574 21.9006 17.5858 23.8835 15.5002 26.0154C13.4147 23.8835 11.4264 21.9006 9.90446 19.8679C8.256 17.6663 7.23355 15.5043 7.23355 13.1751ZM5.68355 13.1751C5.68355 15.9821 6.92154 18.4701 8.66371 20.7969C10.3977 23.1128 12.7094 25.3663 14.9446 27.6653C15.0905 27.8154 15.2909 27.9001 15.5002 27.9001C15.7096 27.9001 15.91 27.8154 16.0559 27.6653C18.2911 25.3663 20.6027 23.1128 22.3367 20.7969C24.0789 18.4701 25.3169 15.9821 25.3169 13.1751C25.3169 7.63156 20.9423 3.1001 15.5002 3.1001C10.0582 3.1001 5.68355 7.63156 5.68355 13.1751Z" fill="#333"/>
</svg>
