<svg width="45" height="45" viewBox="0 0 45 45" fill="none" xmlns="http://www.w3.org/2000/svg">
<circle cx="22.5" cy="22.5" r="22" fill="white" stroke="#333"/>
<path d="M26.875 20.1875C26.875 17.0464 24.3286 14.5 21.1875 14.5C18.0464 14.5 15.5 17.0464 15.5 20.1875C15.5 23.3286 18.0464 25.875 21.1875 25.875C24.3286 25.875 26.875 23.3286 26.875 20.1875ZM28.625 20.1875C28.625 21.929 28.0264 23.5307 27.0237 24.7982L30.9928 28.7554L31.0086 28.7715C31.3349 29.1138 31.3305 29.6559 30.9946 29.9928C30.6534 30.335 30.0994 30.3358 29.7572 29.9946L25.7849 26.0343C24.5196 27.0306 22.9229 27.625 21.1875 27.625C17.0799 27.625 13.75 24.2951 13.75 20.1875C13.75 16.0799 17.0799 12.75 21.1875 12.75C25.2951 12.75 28.625 16.0799 28.625 20.1875Z" fill="#333"/>
</svg>
