<svg width="28" height="28" viewBox="0 0 28 28" fill="none" xmlns="http://www.w3.org/2000/svg">
<path d="M10.8455 7.91599C10.8455 7.46298 10.6663 7.0284 10.3469 6.70705L8.51892 4.87905C8.19759 4.55966 7.76294 4.38038 7.30996 4.38037C6.85751 4.38037 6.42334 4.55922 6.10211 4.87789L5.27886 5.7128C5.27538 5.71632 5.27187 5.71982 5.26833 5.72329C4.8207 6.16208 4.52372 6.73162 4.42013 7.3499C4.3168 7.96667 4.41125 8.60028 4.68988 9.16006C7.8249 15.2349 12.7756 20.1815 18.8532 23.3113C19.4126 23.5897 20.0456 23.6848 20.6625 23.5831C21.2802 23.4812 21.8501 23.1869 22.291 22.7422L23.1194 21.9022C23.1221 21.8995 23.1247 21.8968 23.1275 21.8941C23.2869 21.7366 23.4133 21.5494 23.4995 21.3432C23.5858 21.1365 23.6302 20.9148 23.6302 20.6909C23.6302 20.4671 23.5857 20.2452 23.4995 20.0387L23.4994 20.0386C23.4133 19.8324 23.2869 19.6452 23.1275 19.4877C23.1262 19.4864 23.125 19.4851 23.1237 19.4839L21.3037 17.6638C21.3025 17.6625 21.3012 17.6613 21.3 17.66C21.1425 17.5006 20.955 17.3741 20.7488 17.2879C20.5423 17.2017 20.3207 17.1573 20.0966 17.1573C19.8727 17.1573 19.6511 17.2016 19.4445 17.2879C19.2383 17.374 19.0508 17.5006 18.8931 17.6602C18.8919 17.6614 18.8907 17.6626 18.8895 17.6638L17.3378 19.2156C17.1737 19.3797 16.9512 19.4719 16.7191 19.4719C16.4929 19.4719 16.2757 19.3842 16.1129 19.2278C14.7145 18.1966 13.3958 17.0612 12.1682 15.8315L12.1679 15.8312C10.9188 14.5788 9.76375 13.2361 8.71218 11.8137C8.45468 11.4654 8.49077 10.9811 8.79704 10.6748L10.3469 9.12489C10.6663 8.80354 10.8455 8.36897 10.8455 7.91599ZM12.5955 7.91599C12.5955 8.83135 12.2333 9.7094 11.5881 10.3586L10.5733 11.3733C11.4493 12.5053 12.3956 13.5813 13.4067 14.5951L13.5176 14.7057C14.5006 15.681 15.5444 16.593 16.6423 17.4361L17.652 16.4264C17.9712 16.1044 18.351 15.8481 18.77 15.6731L18.7701 15.6731C19.1905 15.4976 19.6413 15.4073 20.0966 15.4073C20.5377 15.4073 20.9746 15.492 21.3837 15.6569L21.4232 15.6731L21.4233 15.6731C21.8422 15.8481 22.222 16.1043 22.5412 16.4264L24.3612 18.2465C24.6831 18.5656 24.9393 18.9452 25.1143 19.3642L25.1305 19.4037C25.2954 19.8126 25.3802 20.2498 25.3802 20.6909C25.3802 21.1464 25.2898 21.5974 25.1143 22.0176L25.1143 22.0177C24.9401 22.4348 24.6854 22.8128 24.3654 23.131L23.5371 23.971L23.5029 24.0053C22.8071 24.6941 21.9142 25.1503 20.9472 25.3098C19.9651 25.4717 18.9568 25.3195 18.0663 24.8744C18.0632 24.8729 18.06 24.8713 18.0569 24.8697C11.6514 21.5724 6.43406 16.3591 3.13149 9.95631C3.12977 9.95298 3.12807 9.94961 3.1264 9.94626C2.68075 9.05434 2.52944 8.04407 2.69419 7.06074L2.70212 7.0147C2.87313 6.05261 3.33905 5.16702 4.03581 4.48096L4.86108 3.64411L4.86727 3.63789C5.51643 2.99264 6.39459 2.63037 7.30996 2.63037C8.21101 2.63038 9.076 2.98141 9.72202 3.60784L9.75261 3.63789L11.5862 5.47149C11.5868 5.47211 11.5874 5.47274 11.5881 5.47337C12.2333 6.12254 12.5955 7.00061 12.5955 7.91599Z" fill="#333"/>
</svg>
